<?xml version="1.0" encoding="UTF-8"?> <svg xmlns="http://www.w3.org/2000/svg" id="Ebene_1" data-name="Ebene 1" viewBox="0 0 376.03 432"><defs><style> .cls-1 { fill: #262f38; opacity: .08; } .cls-2 { fill: #fff; } .cls-2, .cls-3, .cls-4, .cls-5, .cls-6, .cls-7, .cls-8, .cls-9, .cls-10, .cls-11 { stroke-linecap: round; } .cls-2, .cls-3, .cls-4, .cls-8, .cls-11 { stroke-linejoin: round; } .cls-2, .cls-5, .cls-8, .cls-11 { stroke: #ff8765; } .cls-3 { stroke: #00897b; } .cls-3, .cls-4 { stroke-width: .75px; } .cls-3, .cls-4, .cls-5, .cls-6, .cls-7, .cls-8, .cls-9, .cls-10, .cls-11 { fill: none; } .cls-4 { stroke: #00695c; } .cls-12 { fill: #00695c; } .cls-13 { fill: #00796b; } .cls-14 { fill: #ea592d; } .cls-15 { fill: #ffab91; } .cls-16 { fill: #cfd6dc; } .cls-17 { fill: #1e2b76; } .cls-18 { fill: #1a237e; } .cls-19 { fill: #455a64; } .cls-20 { fill: #455564; } .cls-21 { fill: #26a69a; } .cls-22 { fill: #263238; } .cls-23 { fill: #5e35b1; } .cls-24 { fill: #788a9c; } .cls-5, .cls-6, .cls-7, .cls-9, .cls-10 { stroke-miterlimit: 10; } .cls-6 { stroke: #d84416; } .cls-6, .cls-7, .cls-8 { stroke-width: .5px; } .cls-7 { stroke: #4527a0; } .cls-25 { fill: rgba(38, 47, 56, .08); } .cls-9 { stroke-width: .92px; } .cls-9, .cls-10 { stroke: #fff; } .cls-10 { stroke-width: .94px; } .cls-11 { stroke-width: .56px; } </style></defs><g><path class="cls-12" d="m57.17,290.7s.57,17.54-1.21,24c-1.78,6.46-2.92,5.71-2.4,19.22.52,13.51-2.25,32.19-2.25,32.19l4.77-1.14c.22-.94.1-22.12-.12-27.48s.24-16.16.24-16.51c1.87-6.62,2.76-13.47,2.65-20.34-.09-10.16.37-20.31,1.38-30.42.5-4.6,1.12-12.6,1.12-12.6v-8.39s-1.5.64-1.5.64c0,0,.29,11.08-.36,16.76s-2.23,21.88-2.23,21.88c-.61-2.53-1.06-5.09-1.36-7.67-.22-2.91-.18-5.77-1.41-8.91s-5.51-17.14-5.51-17.14h-1.31s1.62,7.51,2.82,10.73,3.35,5.03,3.9,9.57.21,7.04.7,9.45c.54,2.1,1.24,4.16,2.08,6.16Z"></path><path class="cls-21" d="m53.11,251.54c.66-4.5-3.67-6.17-8-8.5s-9.67-9.99-18.33-6.16c4.5,2.16,7.33,6.66,11.66,12.16,2.95,3.48,6.82,6.08,11.16,7.5,0,0,2.85-.5,3.51-5Z"></path><path class="cls-13" d="m21.27,184.38c0-.09,0-.17,0-.26.83-4,1.83-5.17,1.83-5.17,3.34-.09,6.66.46,9.79,1.63.84.36,1.64.82,2.37,1.37.61.43,1.19.95,1.73,1.43,2.4,2.17,4.48,4.66,6.18,7.41.32.48.61,1.02.91,1.48s.64,1,1,1.6c.73,1.16,1.35,2.37,1.88,3.63.56,1.34.95,2.74,1.17,4.18.51,4.17-.31,8.41-2.36,12.08-3.52-1.89-7.2-3.45-11-4.66-.34-.13-.68-.28-1-.45-1.67-1-3.12-2.33-4.27-3.9-1.34-1.75-2.53-3.63-3.54-5.59-1.01-1.95-1.91-3.95-2.68-6-.61-1.59-1.13-3.22-1.54-4.88-.36-1.27-.52-2.58-.47-3.9Z"></path><path class="cls-21" d="m33.45,216.06c-5.67-2.83-12.33-3.17-20.49,4.83,15.15-1.5,27.15,6.66,27.15,6.66,2.5-6.46-.99-8.66-6.66-11.49Z"></path><path class="cls-21" d="m56.1,203.75c1.66-3.33,4.66-5.84,14.49-6.33s14.32,6,14.32,6c-5.76-.14-11.52.42-17.15,1.67-8,2-13.83,9.47-13.83,9.47-1.33-3.83.51-7.48,2.17-10.81Z"></path><path class="cls-13" d="m66.51,220.7l.28-.14c3.87-1.68,8.17-2.09,12.29-1.17h0s-1.84,9.5-5.33,13.33-2.16,4.83-4.49,10.66c-1.55,3.56-4.61,6.24-8.33,7.33-4.21-.56-5.35-3.97-5.7-8.91-.07-.92-.13-1.92-.13-2.92-.17-6.4,5.33-15.23,11.41-18.18Z"></path><path class="cls-21" d="m75.44,249.54c1.99-.8,4.12-1.17,6.26-1.09,1.86.01,3.71.29,5.49.82h0c2.27.59,4.29,1.92,5.73,3.77.09.14.19.27.3.4.77,1.02,1.68,1.93,2.7,2.7,3.08,2.42,6.47,3.68,7.82,7.89-3,1.83-4.01,1.99-11,.83s-8.5-6.16-14.66-6.66-7.16-1.83-7.16-1.83c.17-2.28.17-4.83,4.52-6.83Z"></path><path class="cls-16" d="m38.01,364.08h31.18c.06,3.24-.04,6.47-.3,9.7-.58,8.03-2.5,15.91-5.69,23.31-.84,1.93-2.76,3.18-4.87,3.16h-9.54c-2.09,0-3.99-1.24-4.83-3.16-3.19-7.41-5.11-15.31-5.69-23.36-.25-3.21-.33-6.43-.26-9.65Z"></path><ellipse class="cls-25" cx="52.73" cy="401.08" rx="19.39" ry="2.07"></ellipse><path class="cls-24" d="m69.2,373.73c-.55,8.22-2.48,16.29-5.7,23.88-.87,1.98-2.84,3.26-5,3.24h-9.77c-2.16.02-4.13-1.26-5-3.24-3.26-7.58-5.23-15.65-5.83-23.88h31.3Z"></path><path class="cls-21" d="m29.34,339.66c5.18.03,10.21-1.74,14.23-5,3.87-3.36,6.17-8.74,5.17-13.74l-.13-.12c-5-.1-9.81,1.93-13.23,5.58-3.38,3.67-5.49,8.32-6.04,13.28Z"></path><path class="cls-21" d="m60.8,334.64c1.08,4.22,5.47,6.96,9.8,7.44s8.65-.83,12.78-2.26c-3.49-3.37-7.69-5.93-12.28-7.49-1.9-.76-3.97-1.01-6-.73-2,.39-3.9,1.03-4.3,3.04Z"></path><path class="cls-13" d="m93.48,305.3c-3.86-2.7-8.49-4.07-13.19-3.91-4.72.2-9.18,2.22-12.44,5.65-3.22,3.48-4.69,8.23-4,12.92,4.61,1.13,9.49.21,13.37-2.52,2.69-1.93,4.76-4.67,7.64-6.29,1.66-.81,3.35-1.53,5.08-2.17,1.74-.65,3.23-1.83,4.26-3.37"></path><path class="cls-21" d="m51.67,310.9c-2.86,1.98-6.35.72-9.64-.42-3.29-1.22-6.05-3.56-7.78-6.62-1.71-3.05-2.67-6.46-2.8-9.95-.05-.86.05-1.9.83-2.27.55-.17,1.15-.12,1.67.13,2.31.78,4.59,1.58,6.86,2.41,2.73,1,5.52,2.07,7.64,4.07,3.22,3.04,4.9,8.54,3.22,12.65"></path><path class="cls-21" d="m64.74,295.68c1.02,1.73,2.83,2.85,4.83,3,1.98.12,3.97-.16,5.83-.84,4.55-1.4,8.86-3.48,12.8-6.16-4.38-2.2-9.27-3.17-14.16-2.78-2.07.09-4.09.67-5.91,1.67-1.83,1.03-3.09,2.85-3.4,4.93"></path><path class="cls-21" d="m59.14,282.86v.21c2.27,1.51,4.99,2.22,7.71,2,2.59-.2,5.02-1.33,6.85-3.17,3.02-3.06,3.93-7.58,4.47-11.84-4.07.35-8.02,1.54-11.6,3.5-3.61,1.99-6.28,5.34-7.43,9.3Z"></path><path class="cls-13" d="m43.2,265.19c-4-2.84-9.16-3.46-13.71-1.64-4.51,1.89-8.12,5.44-10.09,9.92-1.93,4.46-2.69,9.34-2.2,14.18,3.57-2.56,8-3.56,12.06-5.27,3.13-1.44,6.14-3.13,9-5.06,2.22-1.41,4.54-2.93,5.82-5.23s1.1-5.64-1.1-7.1"></path><path class="cls-22" d="m22.59,278.29c.39-.59.97-1.41,1.76-2.41,2.07-2.57,4.47-4.84,7.14-6.77,1.46-1.09,3.03-2.01,4.68-2.76,1.37-.6,2.86-.91,4.36-.9,1.01,0,2.01.22,2.93.63.25.11.49.24.72.39.15.11.22.15.22.18,0,.03-.35-.18-1-.42-.92-.35-1.89-.51-2.87-.49-1.46.04-2.89.38-4.21,1-1.62.75-3.16,1.67-4.59,2.74-2.64,1.92-5.04,4.14-7.16,6.62-.85.96-1.42,1.76-1.85,2.32-.2.31-.43.59-.68.86.15-.35.33-.68.55-.99Z"></path><path class="cls-22" d="m34.99,239.41c.54.3,1.29.77,2.19,1.4,2.34,1.64,4.48,3.56,6.37,5.7,1.88,2.15,3.51,4.52,4.84,7.05.5.98.87,1.78,1.09,2.35.14.29.25.59.32.9-.07.03-.6-1.21-1.67-3.11-1.39-2.47-3.03-4.79-4.89-6.92-1.87-2.13-3.96-4.05-6.23-5.74-1.74-1.3-2.87-1.99-2.87-2.06.3.11.58.26.85.43Z"></path><path class="cls-22" d="m79.05,290.99c-2.09.2-4.15.59-6.17,1.16-2.02.58-3.98,1.33-5.87,2.25-1.44.71-2.34,1.22-2.34,1.16.17-.16.36-.31.56-.43.38-.27.94-.61,1.65-1,3.75-2.03,7.9-3.2,12.15-3.44h1.92c.24-.01.48.01.71.07,0,.07-1,.09-2.61.23Z"></path><path class="cls-22" d="m61.45,334.26h1.75c3.85.11,7.64,1.04,11.1,2.73.66.33,1.19.62,1.54.84.19.09.37.22.52.37-.74-.28-1.47-.6-2.18-.95-1.75-.75-3.55-1.36-5.4-1.82-1.85-.45-3.74-.74-5.64-.88-1.46-.11-2.37-.11-2.37-.17.22-.08.45-.12.68-.12Z"></path><path class="cls-3" d="m29.63,222.61c16.67,3.56,23.82,19.57,30.09,36.73"></path><path class="cls-4" d="m71.11,223.45c-8.76,7.07-11.93,16.26-10.12,27.32"></path><path class="cls-3" d="m34.23,239.25c7.16,4.5,12.2,10.31,15.38,17.3"></path><path class="cls-3" d="m90,253.39c-7.13-5.84-17.06-1.85-29.63,11.44"></path><path class="cls-4" d="m55.12,279.84c-9.17-20.76-20.61-16.44-33.08-.56"></path><line class="cls-3" x1="70.11" y1="276.29" x2="59.45" y2="282.48"></line><path class="cls-3" d="m81.66,290.76c-7.25.3-14.58,1.36-22.81,9.88"></path><path class="cls-4" d="m55.12,327.59l8.83-7.79c5.45-11.05,14.51-14.34,24.93-14.7"></path><path class="cls-3" d="m34.38,293.27c11.01,6.2,17.32,15.34,19.94,26.77"></path><path class="cls-3" d="m76.01,338.15c-4.52-3.27-11.85-4.23-20.64-3.98"></path><path class="cls-3" d="m53.77,322.26c-8.02-3.5-10.96,6.99-21,15.24"></path><path class="cls-4" d="m30.97,186.46c8.99,12.73,15.02,26.53,18.74,41.19"></path><path class="cls-3" d="m57.12,207.66c-4.63,10.09-7.98,20.41-8.19,28.72"></path></g><ellipse class="cls-1" cx="224" cy="408.33" rx="120" ry="3.67"></ellipse><g><circle class="cls-22" cx="237.54" cy="402.54" r="5.56"></circle><path class="cls-16" d="m344.33,285.86h-121.85c-7.51,0-13.62-6.11-13.62-13.62v-33.94h6v33.94c0,4.2,3.42,7.62,7.62,7.62h121.85c4.2,0,7.62-3.42,7.62-7.62v-33.94h6v33.94c0,7.51-6.11,13.62-13.62,13.62Z"></path><rect class="cls-16" x="278.4" y="262.51" width="10" height="117.48"></rect><path class="cls-20" d="m205.46,230.99h14.1c4.39,0,7.95,3.56,7.95,7.95v2.08c0,1.68-1.37,3.05-3.05,3.05h-23.9c-1.68,0-3.05-1.37-3.05-3.05v-2.08c0-4.39,3.56-7.95,7.95-7.95Z"></path><path class="cls-20" d="m347.41,230.99h14.1c4.39,0,7.95,3.56,7.95,7.95v2.08c0,1.68-1.37,3.05-3.05,3.05h-23.9c-1.68,0-3.05-1.37-3.05-3.05v-2.08c0-4.39,3.56-7.95,7.95-7.95Z"></path><rect class="cls-20" x="227.9" y="272.36" width="111" height="21" rx="8.82" ry="8.82"></rect><path class="cls-20" d="m275.07,146.01h16.66c22.11,0,40.05,17.95,40.05,40.05v71.36c0,3.22-2.62,5.84-5.84,5.84h-85.08c-3.22,0-5.84-2.62-5.84-5.84v-71.36c0-22.11,17.95-40.05,40.05-40.05Z"></path><rect class="cls-16" x="231.54" y="392.5" width="12" height="12.35" rx="6" ry="6"></rect><circle class="cls-22" cx="326.98" cy="402.54" r="5.56"></circle><rect class="cls-16" x="320.97" y="392.5" width="12" height="12.35" rx="6" ry="6"></rect><circle class="cls-22" cx="283.1" cy="404.77" r="5.56"></circle><rect class="cls-16" x="277.09" y="394.84" width="12" height="12.35" rx="6" ry="6"></rect><rect class="cls-16" x="274.72" y="368.49" width="17.11" height="14" rx="3.2" ry="3.2"></rect><polygon class="cls-16" points="239.06 402.07 235.49 394.91 283.31 371 329.13 394.95 325.42 402.04 283.23 379.98 239.06 402.07"></polygon><rect class="cls-16" x="279.27" y="375.49" width="8" height="23"></rect></g><g><path class="cls-15" d="m177.43,156.7c.53.69,8.09,16.87,11.07,19.04,3.26,2.37,46.45-9.67,46.45-9.67,0,0-7.95-9.42-8.47-9.59s-31.06.91-31.06.91l-5.02-9.62-12.98,8.93Z"></path><path class="cls-15" d="m93.07,179.24c-2.1-3.04-3.07-6.91-2.64-10.61.59-6.55,16.04-42.55,16.04-42.55,0,0,9.9,3.03,11.61,12.87l-2.74,10.33-8.8,22.74-13.47,7.22Z"></path><path class="cls-14" d="m171.05,61.76s4.6,17.19,5,29.35l.13,4s-10.14,8.43-18.65,8.94l-7.13-17.53,20.65-24.76Z"></path><path class="cls-14" d="m125.99,72.3c1.94-8.38,2.69-18.14,9.66-23.6,5.17-4.06,11.07-5.19,17.63-4.92,3.44.34,6.75,1.45,9.71,3.23,3.86,2.18,5.5,6.62,7.36,10.64,3.73,8.07,3.26,19,.73,22l-33.72,17.81c-6.73-3.51-10.95-4.9-12-13.88-.44-3.77-.22-7.58.63-11.28Z"></path><g><path class="cls-15" d="m117.45,114.98s11.87-5.85,13.6-6.74c3.42-1.77,7.32-3.31,8.51-5.52s1.16-4,.83-8.23c-.33-4.25-2.43-10.94-2.43-10.94h25.93s-6.56,17.11-5.41,19.69c1.15,2.58,11.21,6.48,15.31,8.34s7.69,3.4,7.69,3.4"></path><path class="cls-15" d="m151.18,46.77c5.71,0,12.79,2.55,16.43,9.27,2.08,3.83,2.36,8.66,2.36,15.98,0,15.26-5.74,25.24-10.8,25.24s-11.56-2.98-19.18-10.6c-7.62-7.62-7.14-13.92-7.14-21.25,0-7.33,4.68-18.63,18.32-18.63Z"></path><path class="cls-15" d="m136.96,75.32c-.57-1.8-2.09-6.23-3.95-6.23s-2.25,3.02-1.05,7.65c.72,2.76,2.2,5.46,4.15,5.46s1.42-5.07.85-6.87Z"></path><line class="cls-5" x1="157.48" y1="83.2" x2="163.25" y2="83.2"></line><path class="cls-8" d="m158.64,97.26c-5.79-.56-10.86-3.48-15.54-7.69"></path><path class="cls-8" d="m134.02,69.52c1.28,1.53,2.27,3.36,2.86,5.58"></path><path class="cls-2" d="m163.76,88.24c0,2.51-1.4,4.22-3.16,4.22-1.96,0-5.4-1.27-5.93-3.7-.53-2.44,9.09-2.61,9.09-.52Z"></path></g><polygon class="cls-15" points="168.58 109.19 158.89 107.34 135.36 107.67 115.51 114.34 127.43 132.26 146.75 139.09 161.76 135.55 170.35 125.18 168.58 109.19"></polygon><path class="cls-14" d="m135.14,54.17c-.6-2.52-3.86-.22-3.9-.14-4.79,8.65-9.87,22.37-10.1,44.06h0l21.42,5.89s-1.29-6.61-1.64-9.61c-.37-3.18-.54-5.03-.69-10.73-.16-5.7.09-7.86.77-12.97,2.93-.48,5.57-2.01,7.45-4.31,2.3-2.68,3.69-5.99,4.98-9.27-.09,3.22-1.17,6.34-3.11,8.92,1.31.2,2.63-.23,3.57-1.16.92-.93,1.63-2.04,2.09-3.26,1.23-2.9,1.91-6.01,1.99-9.17.43,4.52-.08,9.08-1.5,13.39.83-.15,1.68-.12,2.49.1.83.21,1.7.02,2.37-.51.35-.44.58-.97.65-1.53.79-3.84.92-7.79.38-11.67,1.08,2.07,1.96,4.23,2.62,6.47.65,2.25.65,4.65,0,6.9.38.39,1.02.4,1.41.02,0,0,.01-.01.02-.02.36-.4.58-.9.62-1.44.2-1.94.08-3.91-.37-5.81,1.14,2,1.52,4.39,2.15,6.64s1.64,4.54,3.59,5.83c.33-2.93.23-5.9-.29-8.81-.52-2.44-1.39-4.79-2.57-6.99-1.11-2.44-2.69-4.64-4.64-6.48-3.37-3-18.84-2.05-24.34-.27-2.03.66-3.14,3.18-3.86,5.02"></path><path class="cls-6" d="m151.18,46.77c-.51,2.68-.63,4.46-3.24,8.76-3.3,5.43-7.91,9.32-10.85,11.78-2.94,2.47-8.03,8.36-8.42,13.29-.69,8.59,2.07,14.92,3,16.47"></path><path class="cls-23" d="m116.27,162.89l-5.27-47.11,16.49-6.22h.11c4.59,13.05,10.06,16.29,14.64,17.99,4.75,1.75,10.26,3.67,18.68-3.48,7.5-6.33,4.15-16.47,4.15-16.47,0,0,8.96,2.64,13.71,4.3s8.98,5.28,10.07,8.38l.23,8.08-6.83,29.01h0s-.8,26.21-.4,28.65c.4,2.44-.39,8.31-4.44,9.8-3.26,1.19-42.25,2.68-56.9,1.8-3.1-.18-8.65-2.84-6.46-8.44l2.23-26.29Z"></path><polygon class="cls-23" points="188.84 120.27 196.32 148.6 177.21 159.56 184.84 120.11 188.84 120.27"></polygon><path class="cls-15" d="m226.48,156.48c.79-2.27,2.23-4.25,4.14-5.7,2.9-1.87,6.33-2.14,8.44-3.2,1.76-.88,5.51-4.13,6.73-2.71,1.22,1.42,1.11,3.62-1.91,5.06-1.99.95-3.89,2.06-5.69,3.32,0,0,20.69,3.98,22.02,4.77s2.65,1.56,2.21,2.77c-.44,1.2-4.34.1-4.34.1l-7.99,2c-2.2,1.43-4.59,2.56-7.1,3.34-2.66.51-5.4.45-8.05-.17l-8.35,1.75s-4.81-7.33-.12-11.34Z"></path><path class="cls-11" d="m240.71,156.06c1.58,1.09,2.46,2.51,2.73,4.23"></path><path class="cls-11" d="m244.68,157.74c1.87.22,3.66.43,5.41.64"></path><path class="cls-11" d="m245.87,161.36c5.12-2.31,9.19-3.61,11.34-1.1"></path><path class="cls-19" d="m127.72,155.09c0-.06,0-.14.06-.28l-.06.28Z"></path><path class="cls-19" d="m127.72,155.09v.07s0-.07,0-.07Z"></path><path class="cls-18" d="m177.47,195.65s12.05,18.05,10.15,40.98c-1.9,22.93-11.08,66.69-11.08,66.69,0,0-.32,37.38-4.43,56.63-4.12,19.25-3.38,25.39-3.38,25.39h-18.16s-1.26-49.11,0-59.43c1.26-10.32,1.41-13.95-.56-22.88l-1.66-62.49-1.58-42.96,30.7-1.92Z"></path><path class="cls-18" d="m121.11,197.83c-8.13,10.85-12.21,24.19-11.56,37.73,1.05,22.94,8.46,67.06,8.46,67.06,0,0-1.16,37.37,2.21,56.74,3.36,19.36,3.66,28.28,3.66,28.28l16.86-2.1s3.2-49.01,2.34-59.38c-.86-10.37-.86-14,1.46-22.84l4.11-62.38-.56-43.49-26.98.38Z"></path><g><path class="cls-23" d="m151.27,405.63v-20.54c3.28-1.38,12.71-1.11,16.81,0,0,0,4.67,11.2,6.54,13.07,1.87,1.87,8.4,1.87,10.27,1.87,1.87,0,3.73,1.81,3.73,3.67v1.93s-37.35,0-37.35,0Z"></path><path class="cls-18" d="m187.06,409.36h-34.22c-.86,0-1.56-.7-1.56-1.56v-2.17s37.35,0,37.35,0v2.17c0,.86-.7,1.56-1.56,1.56Z"></path><g><line class="cls-10" x1="174.61" y1="395.36" x2="170.88" y2="395.36"></line><line class="cls-10" x1="173.68" y1="393.49" x2="169.95" y2="393.49"></line><line class="cls-10" x1="171.81" y1="389.76" x2="168.08" y2="389.76"></line><line class="cls-10" x1="172.75" y1="391.62" x2="169.01" y2="391.62"></line><line class="cls-10" x1="170.88" y1="387.89" x2="167.14" y2="387.89"></line></g></g><g><path class="cls-23" d="m125.39,394.9c0-6.5-4.21-11.14-1.14-11.14s3.18,1.86,3.18,1.86c0,0,.9-1.86,4.99-1.86,4.09,0,5.23,1.86,5.23,1.86,0,0,0-1.86,2.95-1.86,3.07,0-.9,4.64-.9,11.14,0,6.5,2.04,5.57,2.04,11.14h-20.44c0-5.57,4.09-4.64,4.09-11.14Z"></path><path class="cls-17" d="m122.34,406.04h18.37c.57,0,1.04.46,1.04,1.04v2.68h-20.44v-2.68c0-.57.46-1.04,1.04-1.04Z" transform="translate(263.04 815.8) rotate(-180)"></path><g><line class="cls-9" x1="135.54" y1="389.17" x2="129.6" y2="389.17"></line><line class="cls-9" x1="135.54" y1="391.09" x2="129.6" y2="391.09"></line><line class="cls-9" x1="135.54" y1="393.01" x2="129.6" y2="393.01"></line><line class="cls-9" x1="135.54" y1="394.93" x2="129.6" y2="394.93"></line><line class="cls-9" x1="135.54" y1="396.84" x2="129.6" y2="396.84"></line></g></g><path class="cls-19" d="m85.53,180.9c0-.07,0-.16.07-.32l-.07.32Z"></path><path class="cls-19" d="m85.53,180.9v.08s0-.08,0-.08Z"></path><path class="cls-7" d="m166.9,161.01c-10.24,9.03-22.19,15.8-35.32,20.97"></path><path class="cls-7" d="m187.86,129.82c-.82,9-2.47,16.8-4.88,23.54"></path><path class="cls-15" d="m115.35,202.97l-8.62-31.47s-14.37,5.53-14.67,5.8,10.07,22.94,18.05,32.99l3.73-1.54,1.51-5.78Z"></path><path class="cls-15" d="m132.79,198.86s-6.77-2.41-7.41-2.11c-.64.3-5.61,3.46-6.47,4.16,0,0-1.75,1.43-2.79,1.32-.55-.05-1.08-.21-1.57-.49l-4.8,7.81s1.29,3.06,2.54,3.24,8.73-2.15,8.73-2.15l1.74-.15s6.06,2.15,6.96-.04l.17-.64-5.88-2.51-2.36-.24,4.38-.58s5.76,1.33,6.36,1.32,1.43-.79,1.35-1.46l-1.14-.56s1.58-.68,1.8-1.71l-5.11-2.71s3.76-.98,3.52-2.53Z"></path><path class="cls-23" d="m92.45,150.97s8.49-20.38,10.56-24.78c1.86-3.96,3.93-8.73,7.98-10.39h0l7.1,44.97-1.97,5.06-23.66-14.86Z"></path><path class="cls-7" d="m117.43,162.2c.19-13.76-.99-27.62-3.47-41.56"></path></g></svg> 