<?xml version="1.0" encoding="UTF-8"?> <svg xmlns="http://www.w3.org/2000/svg" xmlns:xlink="http://www.w3.org/1999/xlink" width="96px" height="96px" viewBox="0 0 96 96" version="1.1"><title>icon / decor / location / decor_location_g600</title><g id="icon--/--decor--/--location--/--decor_location_g600" stroke="none" stroke-width="1" fill="none" fill-rule="evenodd"><circle id="color/yellow/yellow-100-(y100)" fill="#F3FAF4" cx="48" cy="48" r="48"></circle><g id="icon--/--decor--/--cheers" transform="translate(15.714319, 16.000000)"><path d="M32,52 L23,38 L18,30 L16,22 L17,14 C21,10 23,8 23,8 C23,8 25.3333333,7 30,5 L36,5 L43,9 L47,16 L48,23 L46,31 L38,44 L32,52 Z" id="Path-29" fill="#FFFFFF"></path><path d="M32,4 C41.4814511,4.11533689 49.0833466,11.8782137 49,21.36 C49,28.48 44,37.08 39.48,43.3 C50.39,44.18 60,47 60,51.5 C60,57 45.57,60 32,60 C18.43,60 4,57 4,51.5 C4,47 13.74,44.14 24.75,43.28 C20.22,36.86 15,28.01 15,21.36 C14.9166534,11.8782137 22.5185489,4.11533689 32,4 Z M26.12,45.18 C13.52,45.95 6,49.14 6,51.5 C6,54.21 15.89,58 32,58 C48.11,58 58,54.21 58,51.5 C58,49.15 50.56,46 38.09,45.19 C35.29,48.89 32.98,51.41 32.74,51.68 C32.5491655,51.8857808 32.280642,52.0018991 32,52 L32,52 L31.8779642,51.9923756 C31.6364216,51.9623738 31.4124884,51.8449579 31.25,51.66 C31.2130769,51.6184615 31.13,51.5231953 31.0060127,51.3783523 L30.8685829,51.2171375 C30.0900789,50.3004011 28.2661538,48.0971795 26.12,45.18 Z M32,6 C23.6207655,6.10979067 16.9110707,12.9805182 17,21.36 C17,27.79 22.6,36.86 27.13,43.13 C27.62,43.81 28.1,44.46 28.55,45.06 C30.03,47.03 31.28,48.57 32.03,49.47 C32.81,48.58 34.11,47.07 35.65,45.07 C36.1,44.46 36.6,43.82 37.1,43.14 L37.1,43.14 L37.3693009,42.7725727 C41.785028,36.719148 47,28.1416 47,21.36 C47.0889293,12.9805182 40.3792345,6.10979067 32,6 Z M32,13 C35.8659932,13 39,16.1340068 39,20 C39,23.8659932 35.8659932,27 32,27 C28.1340068,27 25,23.8659932 25,20 C25,16.1340068 28.1340068,13 32,13 Z M32,15 C29.2385763,15 27,17.2385763 27,20 C27,22.7614237 29.2385763,25 32,25 C34.7614237,25 37,22.7614237 37,20 C37,17.2385763 34.7614237,15 32,15 Z" id="Combined-Shape" fill="#4CAF50"></path></g></g></svg> 