<?xml version='1.0' encoding='UTF-8'?>
<svg
  width="24px"
  height="24px"
  viewBox="0 0 24 24"
  version="1.1"
  xmlns="http://www.w3.org/2000/svg"
  xmlns:xlink="http://www.w3.org/1999/xlink"
>
  <title>icon / interface / mail / bg300</title>
  <g
	id="icon--/--interface--/--mail--/--bg300"
	stroke="none"
	stroke-width="1"
	fill="none"
	fill-rule="evenodd"
  >
	<g id="icon--/--interface--/--mail--/--_overwrite" fill="#B0BAC5">
	  <path
		d="M22,4 C23.1045695,4 24,4.8954305 24,6 L24,6 L24,18 C24,19.1045695 23.1045695,20 22,20 L22,20 L2,20 C0.8954305,20 0,19.1045695 0,18 L0,18 L0,6 C0,4.8954305 0.8954305,4 2,4 L2,4 Z M22,7.22 L12.5734623,13.8192319 C12.2674,14.0334756 11.8712918,14.0572804 11.5452193,13.8906465 L11.4265377,13.8192319 L2,7.221 L2,18 L22,18 L22,7.22 Z M20.255,6 L3.744,6 L12,11.779 L20.255,6 Z"
		id="color/_overwrite"
	  ></path>
	</g>
  </g>
</svg>