<?xml version='1.0' encoding='UTF-8'?>
<svg
  width="24px"
  height="24px"
  viewBox="0 0 24 24"
  version="1.1"
  xmlns="http://www.w3.org/2000/svg"
  xmlns:xlink="http://www.w3.org/1999/xlink"
>
  <title>icon / interface / phone / bg300</title>
  <g
	id="icon--/--interface--/--phone--/--bg300"
	stroke="none"
	stroke-width="1"
	fill="none"
	fill-rule="evenodd"
  >
	<g id="icon--/--interface--/--phone--/--_overwrite" fill="#B0BAC5">
	  <path
		d="M4.5527864,2.10557281 C4.93777507,1.91307848 5.40274652,1.98853296 5.70710678,2.29289322 L5.70710678,2.29289322 L9.70710678,6.29289322 C10.0441712,6.6299576 10.0964653,7.15807761 9.83205029,7.5547002 L9.83205029,7.5547002 L8.177,10.037 L8.42294896,10.4369269 C8.99477659,11.3357153 9.63574313,12.1632426 10.3461281,12.920258 L10.3461281,12.920258 L10.7071068,13.2928932 C11.5628944,14.1486808 12.5144867,14.9099188 13.5630731,15.577051 L13.5630731,15.577051 L13.962,15.822 L16.4452998,14.1679497 C16.8058658,13.9275724 17.2751073,13.9489382 17.6106856,14.208051 L17.6106856,14.208051 L17.7071068,14.2928932 L21.7071068,18.2928932 C22.011467,18.5972535 22.0869215,19.0622249 21.8944272,19.4472136 C20.40739,22.4212879 18.828678,24 17,24 C14.4833557,24 9.98936602,21.4035796 6.29289322,17.7071068 C2.59642042,14.010634 -3.58824082e-13,9.51664428 -3.58824082e-13,7 C-3.58824082e-13,5.17132205 1.57871207,3.59260997 4.5527864,2.10557281 Z M4.811,4.226 L4.43759382,4.43780394 C2.77573426,5.40656441 2,6.29239764 2,7 C2,8.86839891 4.34987997,12.9356664 7.70710678,16.2928932 C11.0643336,19.65012 15.1316011,22 17,22 C17.7412977,22 18.6782048,21.1486272 19.7011443,19.3189577 L19.7011443,19.3189577 L19.773,19.188 L16.872,16.287 L14.5547002,17.8320503 C14.2777674,18.0166722 13.9297799,18.0500248 13.625984,17.9274437 L13.625984,17.9274437 L13.5143571,17.8741573 C11.9339255,16.9961397 10.5259282,15.9401418 9.29289322,14.7071068 C8.05985825,13.4740718 7.00386025,12.0660745 6.12584272,10.4856429 C5.94400062,10.1583272 5.96025009,9.75684922 6.16794971,9.4452998 L6.16794971,9.4452998 L7.712,7.127 L4.811,4.226 Z M13.2169305,2.02381294 C15.4801992,2.52676156 17.4347291,3.50402651 19.0643638,4.95259068 C20.6838185,6.39210594 21.9700671,8.28574967 22.925547,10.6213672 C23.1346601,11.1325326 22.8897983,11.7164338 22.3786328,11.925547 C21.8674674,12.1346601 21.2835662,11.8897983 21.074453,11.3786328 C20.2299329,9.31425033 19.1161815,7.67456073 17.7356362,6.44740932 C16.3652709,5.22930683 14.7198008,4.40657177 12.7830695,3.97618706 C12.2439363,3.85637968 11.9040056,3.32220277 12.0238129,2.78306954 C12.1436203,2.24393632 12.6777972,1.90400556 13.2169305,2.02381294 Z"
		id="color/_overwrite"
	  ></path>
	</g>
  </g>
</svg>